PathFileType	4	(X/Y/Z)	/Users/itak/Documents/Research/Walk-IL/dataset/trc/00143_00007.trc
DataRate	CameraRate	NumFrames	NumMarkers	Units	OrigDataRate	OrigDataStartFrame	OrigNumFrames
100.000000	100.000000	4	53	mm	100.000000	0	535
Frame#	Time	RPSI			LPSI			L3			STRN			T10			C7			CLAV			RBAK			LBAK			LSHO			LUPA			LAEL			LAOL			LWTS			LWPS			LFRA			LIFD			LHPS			LHTS			RSHO			RUPA			RAEL			RAOL			RWTS			RWPS			RFRA			RIFD			RHTS			RHPS			RBHD			LFHD			RFHD			LBHD			LHIP			RHIP			RASI			LASI			LKNE			LTHI			LANK			LTIP			LTOE			LMT1			LMT5			LHEE			RKNE			RTHI			RANK			RTIP			RTOE			RMT1			RMT5			RHEE			
		X1	Y1	Z1	X2	Y2	Z2	X3	Y3	Z3	X4	Y4	Z4	X5	Y5	Z5	X6	Y6	Z6	X7	Y7	Z7	X8	Y8	Z8	X9	Y9	Z9	X10	Y10	Z10	X11	Y11	Z11	X12	Y12	Z12	X13	Y13	Z13	X14	Y14	Z14	X15	Y15	Z15	X16	Y16	Z16	X17	Y17	Z17	X18	Y18	Z18	X19	Y19	Z19	X20	Y20	Z20	X21	Y21	Z21	X22	Y22	Z22	X23	Y23	Z23	X24	Y24	Z24	X25	Y25	Z25	X26	Y26	Z26	X27	Y27	Z27	X28	Y28	Z28	X29	Y29	Z29	X30	Y30	Z30	X31	Y31	Z31	X32	Y32	Z32	X33	Y33	Z33	X34	Y34	Z34	X35	Y35	Z35	X36	Y36	Z36	X37	Y37	Z37	X38	Y38	Z38	X39	Y39	Z39	X40	Y40	Z40	X41	Y41	Z41	X42	Y42	Z42	X43	Y43	Z43	X44	Y44	Z44	X45	Y45	Z45	X46	Y46	Z46	X47	Y47	Z47	X48	Y48	Z48	X49	Y49	Z49	X50	Y50	Z50	X51	Y51	Z51	X52	Y52	Z52	X53	Y53	Z53	

1	0	-795.2283325195312	1129.396606445312	1219.560668945312	-791.4434814453125	1130.5126953125	1085.36572265625	-800.603271484375	1160.074584960938	1149.778442382812	-601.4737548828125	1366.116333007812	1156.515258789062	-851.8455810546875	1305.071533203125	1144.403564453125	-834.5716552734375	1598.392333984375	1131.748779296875	-646.6947021484375	1498.407958984375	1150.85498046875	-882.044921875	1410.722900390625	1214.8603515625	-835.0313720703125	1577.797119140625	1029.587524414062	-744.2526245117188	1567.214965820312	965.66259765625	-756.4228515625	1432.984130859375	896.980224609375	-731.2086791992188	1214.391723632812	880.5773315429688	-794.3126831054688	1199.882080078125	941.6671752929688	-608.1963500976562	966.091064453125	920.92041015625	-689.6079711914062	933.4268798828125	902.3787841796875	-707.07763671875	1099.407958984375	878.037353515625	-573.700927734375	775.1994018554688	939.9261474609375	-655.2286987304688	860.73291015625	901.6536254882812	-588.0972900390625	879.2722778320312	911.3425903320312	-790.1630249023438	1581.880737304688	1314.881103515625	-809.5806884765625	1508.502685546875	1377.005126953125	-811.8859252929688	1214.61767578125	1398.322631835938	-807.3543090820312	1212.267700195312	1302.19140625	-652.0350952148438	980.4633178710938	1405.501342773438	-729.3405151367188	959.8812255859375	1427.721557617188	-786.3497924804688	1143.007690429688	1417.412109375	-610.0874633789062	788.5480346679688	1397.869750976562	-616.3897705078125	875.6261596679688	1417.128173828125	-685.4173583984375	863.10986328125	1436.622314453125	-785.052978515625	1777.850463867188	1222.662719726562	-639.5894775390625	1840.038330078125	1068.792724609375	-621.6505737304688	1843.696655273438	1197.88427734375	-810.6695556640625	1778.786499023438	1090.02587890625	-696.0872802734375	1040.64599609375	979.7363891601562	-648.3643188476562	1050.134521484375	1354.635009765625	-587.8358154296875	1109.7978515625	1289.698608398438	-588.41943359375	1108.623901367188	1022.939147949219	-681.1665649414062	539.5812377929688	1017.425476074219	-698.4466552734375	686.093505859375	987.0384521484375	-791.5869750976562	38.55037689208984	1032.796142578125	-780.388916015625	293.3702392578125	993.0194091796875	-566.1119384765625	42.02795791625977	1110.497192382812	-649.8453979492188	43.80879974365234	1136.835327148438	-664.3121337890625	40.26830673217773	1019.891479492188	-866.7373046875	41.25080871582031	1088.5087890625	-683.918701171875	542.1356811523438	1305.50732421875	-650.9348754882812	821.3226928710938	1333.672973632812	-808.0106201171875	34.52522277832031	1288.45458984375	-715.8536987304688	409.1473999023438	1316.064697265625	-574.1935424804688	47.30810165405273	1244.768432617188	-632.8175048828125	38.6885871887207	1200.751098632812	-675.413330078125	42.41218185424805	1316.549926757812	-864.2474975585938	35.41539001464844	1238.497680664062	
2	0.01	-795.3447875976562	1129.457275390625	1219.730834960938	-791.396728515625	1130.493286132812	1085.49951171875	-800.6456298828125	1160.075561523438	1149.90673828125	-601.4503784179688	1366.092651367188	1156.729614257812	-851.8901977539062	1305.0498046875	1144.464965820312	-834.6395874023438	1598.342651367188	1131.664184570312	-646.7517700195312	1498.406494140625	1150.951293945312	-882.1057739257812	1410.708862304688	1214.849487304688	-835.0281372070312	1577.74072265625	1029.547729492188	-744.181884765625	1567.11279296875	965.6847534179688	-756.3262939453125	1432.886596679688	897.06396484375	-731.125732421875	1214.3134765625	880.6482543945312	-794.3751831054688	1199.890014648438	941.5733642578125	-608.9926147460938	965.5621948242188	921.2933959960938	-690.4899291992188	933.2274169921875	902.3582153320312	-707.2313232421875	1099.278076171875	878.1079711914062	-575.4882202148438	774.4840087890625	940.3449096679688	-656.3493041992188	860.503662109375	901.6976318359375	-589.2001342773438	878.623779296875	911.7532958984375	-790.337890625	1581.924072265625	1314.860107421875	-809.7640380859375	1508.571411132812	1376.990844726562	-811.7373657226562	1214.712890625	1398.7734375	-807.3327026367188	1212.195678710938	1302.66796875	-651.4169311523438	980.8785400390625	1406.012817382812	-728.6876220703125	960.1551513671875	1428.395874023438	-786.0555419921875	1143.117431640625	1417.914794921875	-608.980224609375	789.0781860351562	1398.549560546875	-615.5122680664062	876.116455078125	1417.722412109375	-684.4778442382812	863.5073852539062	1437.37158203125	-785.4395141601562	1778.013916015625	1222.2783203125	-639.2635498046875	1839.817993164062	1068.966430664062	-621.8412475585938	1843.638427734375	1198.112548828125	-810.4583129882812	1778.8359375	1089.53515625	-696.0250244140625	1040.607177734375	979.9579467773438	-648.4778442382812	1050.117309570312	1354.629760742188	-587.9893798828125	1109.822998046875	1289.983154296875	-588.3427124023438	1108.590209960938	1023.211059570312	-681.0140991210938	539.5730590820312	1017.621459960938	-698.29345703125	686.0819091796875	987.2290649414062	-791.5881958007812	38.58040618896484	1032.815795898438	-780.287109375	293.3829650878906	993.1239013671875	-566.091064453125	42.01544189453125	1110.505981445312	-649.8323974609375	43.79704284667969	1136.843994140625	-664.3005981445312	40.27936172485352	1019.913879394531	-866.7415771484375	41.24717712402344	1088.536987304688	-684.1433715820312	542.1373901367188	1305.682250976562	-651.103271484375	821.3544311523438	1333.939086914062	-808.0319213867188	34.48952865600586	1288.471069335938	-716.0220947265625	409.1564331054688	1316.23046875	-574.2154541015625	47.3300666809082	1244.786865234375	-632.839111328125	38.72544097900391	1200.774536132812	-675.4292602539062	42.40531539916992	1316.563598632812	-864.2620849609375	35.40546417236328	1238.515991210938	
3	0.02	-795.4896240234375	1129.531616210938	1219.9384765625	-791.338623046875	1130.47607421875	1085.656372070312	-800.6934204101562	1160.079345703125	1150.06298828125	-601.4359741210938	1366.07177734375	1156.996337890625	-851.9385986328125	1305.020751953125	1144.541259765625	-834.7252197265625	1598.278564453125	1131.561889648438	-646.82275390625	1498.405517578125	1151.07861328125	-882.17822265625	1410.68896484375	1214.83740234375	-835.0188598632812	1577.671508789062	1029.500122070312	-744.0971069335938	1566.990356445312	965.71630859375	-756.2083129882812	1432.7705078125	897.166259765625	-731.0511474609375	1214.225830078125	880.7199096679688	-794.4874267578125	1199.9111328125	941.4351196289062	-610.012939453125	964.91748046875	921.7406005859375	-691.6015625	932.9913940429688	902.3154907226562	-707.4529418945312	1099.124877929688	878.183837890625	-577.7211303710938	773.6163330078125	940.8390502929688	-657.7761840820312	860.209228515625	901.7509765625	-590.6057739257812	877.8386840820312	912.2482299804688	-790.5640869140625	1581.974975585938	1314.837524414062	-809.9940795898438	1508.654174804688	1376.97900390625	-811.5376586914062	1214.81982421875	1399.315673828125	-807.272705078125	1212.124145507812	1303.245727539062	-650.6482543945312	981.3766479492188	1406.655395507812	-727.87841796875	960.4916381835938	1429.225952148438	-785.6692504882812	1143.261596679688	1418.52490234375	-607.6593017578125	789.7070922851562	1399.413330078125	-614.4373168945312	876.7052001953125	1418.470947265625	-683.3565673828125	863.9890747070312	1438.299438476562	-785.9032592773438	1778.2177734375	1221.805541992188	-638.8770751953125	1839.548828125	1069.180053710938	-622.0751953125	1843.572509765625	1198.38916015625	-810.2064819335938	1778.890747070312	1088.94384765625	-695.924560546875	1040.563598632812	980.2426147460938	-648.6085815429688	1050.10107421875	1354.667724609375	-588.1802368164062	1109.85498046875	1290.343872070312	-588.24365234375	1108.548583984375	1023.557922363281	-680.8292846679688	539.5584106445312	1017.864379882812	-698.0941772460938	686.064208984375	987.471923828125	-791.5895385742188	38.61423873901367	1032.839477539062	-780.1548461914062	293.3949890136719	993.2476196289062	-566.0679931640625	42.000244140625	1110.516845703125	-649.8186645507812	43.78281784057617	1136.856201171875	-664.287353515625	40.29349517822266	1019.942016601562	-866.7462768554688	41.24324035644531	1088.56787109375	-684.4315795898438	542.1436157226562	1305.906005859375	-651.3294677734375	821.3883056640625	1334.280395507812	-808.05712890625	34.44665145874023	1288.491455078125	-716.2332153320312	409.1712951660156	1316.444458007812	-574.2445068359375	47.36050796508789	1244.8115234375	-632.8657836914062	38.77120208740234	1200.80224609375	-675.4478149414062	42.39706420898438	1316.581665039062	-864.2799072265625	35.3882942199707	1238.537231445312	
4	0.03	-795.65625	1129.614501953125	1220.1708984375	-791.2721557617188	1130.4638671875	1085.824829101562	-800.7420043945312	1160.0869140625	1150.2373046875	-601.435546875	1366.057739257812	1157.304321289062	-851.9854125976562	1304.9853515625	1144.626831054688	-834.823486328125	1598.202514648438	1131.44873046875	-646.9044189453125	1498.40478515625	1151.234741210938	-882.2572631835938	1410.663696289062	1214.825439453125	-835.000732421875	1577.592407226562	1029.448852539062	-744.0020751953125	1566.855834960938	965.7573852539062	-756.0758666992188	1432.644775390625	897.2799072265625	-731.0050659179688	1214.137084960938	880.780029296875	-794.6649169921875	1199.950317382812	941.245849609375	-611.2239990234375	964.19384765625	922.2304077148438	-692.9027709960938	932.7352294921875	902.2457885742188	-707.7468872070312	1098.960205078125	878.2539672851562	-580.2973022460938	772.6483764648438	941.3707885742188	-659.4556274414062	859.8603515625	901.810302734375	-592.260986328125	876.965087890625	912.7952270507812	-790.8331909179688	1582.029907226562	1314.816040039062	-810.259033203125	1508.745727539062	1376.97314453125	-811.2886352539062	1214.930053710938	1399.91650390625	-807.1624145507812	1212.063720703125	1303.887084960938	-649.7653198242188	981.92529296875	1407.40234375	-726.9536743164062	960.8711547851562	1430.166137695312	-785.20166015625	1143.436157226562	1419.207885742188	-606.207763671875	790.393310546875	1400.430541992188	-613.224853515625	877.3552856445312	1419.345458984375	-682.1222534179688	864.5283203125	1439.359497070312	-786.4171752929688	1778.45361328125	1221.270141601562	-638.4557495117188	1839.246215820312	1069.422241210938	-622.341552734375	1843.505249023438	1198.698120117188	-809.930908203125	1778.9453125	1088.287963867188	-695.7813110351562	1040.517456054688	980.5791015625	-648.74951171875	1050.0869140625	1354.76318359375	-588.4006958007812	1109.891845703125	1290.76806640625	-588.12548828125	1108.501220703125	1023.968383789062	-680.6229248046875	539.5368041992188	1018.144714355469	-697.8551025390625	686.0393676757812	987.7572021484375	-791.5904541015625	38.64911270141602	1032.864501953125	-779.9951171875	293.40478515625	993.3821411132812	-566.0455932617188	41.9837760925293	1110.529174804688	-649.8064575195312	43.76661682128906	1136.871826171875	-664.2733154296875	40.31049728393555	1019.974914550781	-866.7511596679688	41.23883438110352	1088.598266601562	-684.7718505859375	542.154052734375	1306.171875	-651.6095581054688	821.4202270507812	1334.683715820312	-808.08447265625	34.39904022216797	1288.514038085938	-716.4765625	409.1917114257812	1316.698608398438	-574.2802124023438	47.39858627319336	1244.842041015625	-632.896484375	38.82355499267578	1200.83251953125	-675.4679565429688	42.38772964477539	1316.60302734375	-864.299560546875	35.36297607421875	1238.559936523438	
